<?xml version="1.0" encoding="UTF-8"?>
<svg width="1200" height="800" xmlns="http://www.w3.org/2000/svg">
  <!-- Styles -->
  <defs>
    <marker id="arrow" viewBox="0 0 10 10" refX="9" refY="5" markerWidth="6" markerHeight="6" orient="auto">
      <path d="M 0 0 L 10 5 L 0 10 z" fill="#666"/>
    </marker>
  </defs>
  
  <!-- Title -->
  <text x="600" y="40" text-anchor="middle" font-family="Arial" font-size="24" font-weight="bold">CLSU-ERDT System Data Flow Diagram</text>

  <!-- External Entities -->
  <g fill="#e6f3ff" stroke="#333" stroke-width="2">
    <!-- Scholars -->
    <rect x="50" y="100" width="120" height="60" rx="5"/>
    <text x="110" y="135" text-anchor="middle" font-family="Arial" font-size="14">Scholars</text>
    
    <!-- Administrators -->
    <rect x="50" y="400" width="120" height="60" rx="5"/>
    <text x="110" y="435" text-anchor="middle" font-family="Arial" font-size="14">Administrators</text>
  </g>

  <!-- Processes -->
  <g fill="#ffe6e6" stroke="#333" stroke-width="2">
    <!-- Scholar Management -->
    <circle cx="300" cy="130" r="50"/>
    <text x="300" y="130" text-anchor="middle" font-family="Arial" font-size="12">Scholar</text>
    <text x="300" y="145" text-anchor="middle" font-family="Arial" font-size="12">Management</text>

    <!-- Fund Request Processing -->
    <circle cx="500" cy="130" r="50"/>
    <text x="500" y="130" text-anchor="middle" font-family="Arial" font-size="12">Fund Request</text>
    <text x="500" y="145" text-anchor="middle" font-family="Arial" font-size="12">Processing</text>

    <!-- Manuscript Management -->
    <circle cx="700" cy="130" r="50"/>
    <text x="700" y="130" text-anchor="middle" font-family="Arial" font-size="12">Manuscript</text>
    <text x="700" y="145" text-anchor="middle" font-family="Arial" font-size="12">Management</text>

    <!-- Disbursement Management -->
    <circle cx="500" cy="300" r="50"/>
    <text x="500" y="300" text-anchor="middle" font-family="Arial" font-size="12">Disbursement</text>
    <text x="500" y="315" text-anchor="middle" font-family="Arial" font-size="12">Management</text>

    <!-- Reporting System -->
    <circle cx="300" cy="430" r="50"/>
    <text x="300" y="430" text-anchor="middle" font-family="Arial" font-size="12">Reporting</text>
    <text x="300" y="445" text-anchor="middle" font-family="Arial" font-size="12">System</text>
  </g>

  <!-- Data Stores -->
  <g fill="#e6ffe6" stroke="#333" stroke-width="2">
    <!-- Users & Scholars DB -->
    <line x1="900" y1="100" x2="1100" y2="100"/>
    <line x1="900" y1="80" x2="1100" y2="80"/>
    <text x="1000" y="95" text-anchor="middle" font-family="Arial" font-size="12">Users & Scholars DB</text>

    <!-- Fund Requests DB -->
    <line x1="900" y1="200" x2="1100" y2="200"/>
    <line x1="900" y1="180" x2="1100" y2="180"/>
    <text x="1000" y="195" text-anchor="middle" font-family="Arial" font-size="12">Fund Requests DB</text>

    <!-- Manuscripts DB -->
    <line x1="900" y1="300" x2="1100" y2="300"/>
    <line x1="900" y1="280" x2="1100" y2="280"/>
    <text x="1000" y="295" text-anchor="middle" font-family="Arial" font-size="12">Manuscripts DB</text>

    <!-- Disbursements DB -->
    <line x1="900" y1="400" x2="1100" y2="400"/>
    <line x1="900" y1="380" x2="1100" y2="380"/>
    <text x="1000" y="395" text-anchor="middle" font-family="Arial" font-size="12">Disbursements DB</text>
  </g>

  <!-- Data Flows -->
  <g stroke="#666" stroke-width="1.5" fill="none" marker-end="url(#arrow)">
    <!-- Scholar Flows -->
    <path d="M 170 130 L 250 130"/>
    <path d="M 350 130 L 450 130"/>
    <path d="M 550 130 L 650 130"/>
    <path d="M 750 130 L 900 90"/>

    <!-- Administrator Flows -->
    <path d="M 170 430 L 250 430"/>
    <path d="M 350 430 L 450 300"/>
    <path d="M 550 300 L 900 390"/>

    <!-- Database Flows -->
    <path d="M 300 180 L 300 380"/>
    <path d="M 500 180 L 500 250"/>
    <path d="M 700 180 L 900 290"/>
  </g>

  <!-- Flow Labels -->
  <g font-family="Arial" font-size="10" text-anchor="middle">
    <text x="210" y="120">Profile Data</text>
    <text x="400" y="120">Fund Requests</text>
    <text x="600" y="120">Manuscripts</text>
    <text x="210" y="420">Reports Access</text>
    <text x="400" y="280">Disbursement Data</text>
    <text x="800" y="280">Status Updates</text>
  </g>

  <!-- Legend -->
  <g transform="translate(50, 600)">
    <text x="0" y="0" font-family="Arial" font-size="14" font-weight="bold">Legend:</text>
    
    <!-- External Entity -->
    <rect x="0" y="20" width="60" height="30" fill="#e6f3ff" stroke="#333"/>
    <text x="70" y="40" font-family="Arial" font-size="12">External Entity</text>
    
    <!-- Process -->
    <circle cx="30" y="80" r="25" fill="#ffe6e6" stroke="#333"/>
    <text x="70" y="85" font-family="Arial" font-size="12">Process</text>
    
    <!-- Data Store -->
    <line x1="0" y1="120" x2="60" y2="120" stroke="#333" stroke-width="2"/>
    <line x1="0" y1="110" x2="60" y2="110" stroke="#333" stroke-width="2"/>
    <text x="70" y="120" font-family="Arial" font-size="12">Data Store</text>
  </g>
</svg>