<?xml version="1.0" encoding="UTF-8"?>
<svg width="1200" height="800" xmlns="http://www.w3.org/2000/svg">
  <!-- Title -->
  <text x="600" y="40" text-anchor="middle" font-family="Arial" font-size="24" font-weight="bold">CLSU-ERDT System Entity Relationship Diagram</text>

  <!-- Styles -->
  <defs>
    <marker id="arrow" viewBox="0 0 10 10" refX="9" refY="5" markerWidth="6" markerHeight="6" orient="auto">
      <path d="M 0 0 L 10 5 L 0 10 z" fill="#666"/>
    </marker>
  </defs>

  <!-- Users Table -->
  <g transform="translate(100,100)">
    <rect width="200" height="180" fill="#e6f3ff" stroke="#333" stroke-width="2" rx="5"/>
    <text x="100" y="30" text-anchor="middle" font-family="Arial" font-size="16" font-weight="bold">Users</text>
    <line x1="0" y1="40" x2="200" y2="40" stroke="#333" stroke-width="1"/>
    <text x="10" y="60" font-family="Arial" font-size="12">PK: ID</text>
    <text x="10" y="80" font-family="Arial" font-size="12">Email</text>
    <text x="10" y="100" font-family="Arial" font-size="12">Password</text>
    <text x="10" y="120" font-family="Arial" font-size="12">Role (admin/scholar)</text>
    <text x="10" y="140" font-family="Arial" font-size="12">Status</text>
    <text x="10" y="160" font-family="Arial" font-size="12">Created_By (Admin ID)</text>
  </g>

  <!-- Scholars Table -->
  <g transform="translate(500,100)">
    <rect width="200" height="180" fill="#ffe6e6" stroke="#333" stroke-width="2" rx="5"/>
    <text x="100" y="30" text-anchor="middle" font-family="Arial" font-size="16" font-weight="bold">Scholars</text>
    <line x1="0" y1="40" x2="200" y2="40" stroke="#333" stroke-width="1"/>
    <text x="10" y="60" font-family="Arial" font-size="12">PK: ID</text>
    <text x="10" y="80" font-family="Arial" font-size="12">FK: User_ID</text>
    <text x="10" y="100" font-family="Arial" font-size="12">Academic_Information</text>
    <text x="10" y="120" font-family="Arial" font-size="12">Program_Details</text>
    <text x="10" y="140" font-family="Arial" font-size="12">Status</text>
  </g>

  <!-- Fund Requests Table -->
  <g transform="translate(900,100)">
    <rect width="200" height="180" fill="#e6ffe6" stroke="#333" stroke-width="2" rx="5"/>
    <text x="100" y="30" text-anchor="middle" font-family="Arial" font-size="16" font-weight="bold">Fund_Requests</text>
    <line x1="0" y1="40" x2="200" y2="40" stroke="#333" stroke-width="1"/>
    <text x="10" y="60" font-family="Arial" font-size="12">PK: ID</text>
    <text x="10" y="80" font-family="Arial" font-size="12">FK: Scholar_ID</text>
    <text x="10" y="100" font-family="Arial" font-size="12">Request_Type</text>
    <text x="10" y="120" font-family="Arial" font-size="12">Amount</text>
    <text x="10" y="140" font-family="Arial" font-size="12">Status</text>
    <text x="10" y="160" font-family="Arial" font-size="12">Documents</text>
  </g>

  <!-- Manuscripts Table -->
  <g transform="translate(100,400)">
    <rect width="200" height="180" fill="#fff2e6" stroke="#333" stroke-width="2" rx="5"/>
    <text x="100" y="30" text-anchor="middle" font-family="Arial" font-size="16" font-weight="bold">Manuscripts</text>
    <line x1="0" y1="40" x2="200" y2="40" stroke="#333" stroke-width="1"/>
    <text x="10" y="60" font-family="Arial" font-size="12">PK: ID</text>
    <text x="10" y="80" font-family="Arial" font-size="12">FK: Scholar_ID</text>
    <text x="10" y="100" font-family="Arial" font-size="12">Title</text>
    <text x="10" y="120" font-family="Arial" font-size="12">Version</text>
    <text x="10" y="140" font-family="Arial" font-size="12">Status</text>
    <text x="10" y="160" font-family="Arial" font-size="12">Review_Comments</text>
  </g>

  <!-- Disbursements Table -->
  <g transform="translate(500,400)">
    <rect width="200" height="160" fill="#e6e6ff" stroke="#333" stroke-width="2" rx="5"/>
    <text x="100" y="30" text-anchor="middle" font-family="Arial" font-size="16" font-weight="bold">Disbursements</text>
    <line x1="0" y1="40" x2="200" y2="40" stroke="#333" stroke-width="1"/>
    <text x="10" y="60" font-family="Arial" font-size="12">PK: ID</text>
    <text x="10" y="80" font-family="Arial" font-size="12">FK: Request_ID</text>
    <text x="10" y="100" font-family="Arial" font-size="12">Amount</text>
    <text x="10" y="120" font-family="Arial" font-size="12">Date</text>
    <text x="10" y="140" font-family="Arial" font-size="12">Status</text>
  </g>

  <!-- Admin Actions Table (New) -->
  <g transform="translate(900,400)">
    <rect width="200" height="160" fill="#f2e6ff" stroke="#333" stroke-width="2" rx="5"/>
    <text x="100" y="30" text-anchor="middle" font-family="Arial" font-size="16" font-weight="bold">Admin_Actions</text>
    <line x1="0" y1="40" x2="200" y2="40" stroke="#333" stroke-width="1"/>
    <text x="10" y="60" font-family="Arial" font-size="12">PK: ID</text>
    <text x="10" y="80" font-family="Arial" font-size="12">FK: Admin_ID (User)</text>
    <text x="10" y="100" font-family="Arial" font-size="12">Action_Type</text>
    <text x="10" y="120" font-family="Arial" font-size="12">Target_ID</text>
    <text x="10" y="140" font-family="Arial" font-size="12">Timestamp</text>
  </g>

  <!-- Relationships -->
  <g stroke="#666" stroke-width="1.5" fill="none" marker-end="url(#arrow)">
    <!-- Users - Scholars -->
    <path d="M 300 180 L 500 180"/>
    <!-- Scholars - Fund Requests -->
    <path d="M 700 180 L 900 180"/>
    <!-- Scholars - Manuscripts -->
    <path d="M 600 280 L 200 400"/>
    <!-- Fund Requests - Disbursements -->
    <path d="M 1000 280 L 600 400"/>
    <!-- Users - Admin Actions -->
    <path d="M 200 280 L 900 450"/>
  </g>

  <!-- Relationship Labels -->
  <g font-family="Arial" font-size="12" text-anchor="middle">
    <text x="400" y="160">1:1</text>
    <text x="800" y="160">1:N</text>
    <text x="400" y="350">1:N</text>
    <text x="800" y="350">1:1</text>
    <text x="550" y="380">1:N</text>
  </g>

  <!-- Legend -->
  <g transform="translate(100,620)">
    <text x="0" y="0" font-family="Arial" font-size="14" font-weight="bold">Legend:</text>
    <rect x="0" y="20" width="60" height="30" fill="#e6f3ff" stroke="#333"/>
    <text x="70" y="40" font-family="Arial" font-size="12">Primary Entity</text>
    <rect x="0" y="60" width="60" height="30" fill="#ffe6e6" stroke="#333"/>
    <text x="70" y="80" font-family="Arial" font-size="12">Related Entity</text>
    <text x="0" y="110" font-family="Arial" font-size="12">PK: Primary Key</text>
    <text x="0" y="130" font-family="Arial" font-size="12">FK: Foreign Key</text>
  </g>

  <!-- System Note -->
  <g transform="translate(600,650)">
    <rect width="450" height="80" fill="#f5f5f5" stroke="#333" stroke-width="1" rx="5"/>
    <text x="10" y="30" font-family="Arial" font-size="14" font-weight="bold">System Note:</text>
    <text x="10" y="55" font-family="Arial" font-size="12">User accounts are created exclusively by administrators.</text>
    <text x="10" y="75" font-family="Arial" font-size="12">Self-registration is disabled - all user management is admin-controlled.</text>
  </g>
</svg>